<svg width="117" height="121" viewBox="0 0 117 121" fill="none" xmlns="http://www.w3.org/2000/svg">
<path d="M2.45866 42.8598C6.51495 30.1984 14.8091 19.3438 25.9279 12.1456C37.0467 4.9473 50.3021 1.85069 63.4357 3.38337C76.5693 4.91605 88.7683 10.9832 97.9544 20.551C107.14 30.1189 112.745 42.5954 113.813 55.8548C114.881 69.1142 111.347 82.336 103.812 93.2675C96.2779 104.199 85.2092 112.164 72.4924 115.804C59.7756 119.445 46.1975 118.537 34.0716 113.235C21.9458 107.932 12.0224 98.5631 5.99241 86.7243" stroke="#F2F6FB" stroke-width="4.45565" stroke-linecap="round"/>
<path d="M40.5078 5.1955C53.2246 1.55462 66.8027 2.46286 78.9286 7.76545C91.0544 13.068 100.978 22.4369 107.008 34.2757" stroke="#FF84A0" stroke-width="4.45565" stroke-linecap="round"/>
</svg>
