<svg width="121" height="121" viewBox="0 0 121 121" fill="none" xmlns="http://www.w3.org/2000/svg">
<path d="M5.61365 42.8594C9.70067 30.198 18.0576 19.3435 29.2607 12.1452C40.4637 4.94693 53.8196 1.85032 67.0526 3.38301C80.2857 4.91569 92.5772 10.9828 101.833 20.5507C111.088 30.1185 116.735 42.595 117.812 55.8544C118.888 69.1138 115.327 82.3356 107.735 93.2671C100.144 104.199 88.9911 112.163 76.1779 115.804C63.3648 119.445 49.6838 118.537 37.4661 113.234C25.2484 107.932 15.2499 98.5627 9.17417 86.7239" stroke="#F2F6FB" stroke-width="4.45565" stroke-linecap="round"/>
<path d="M91.7393 108.854C80.5363 116.052 67.1805 119.149 53.9474 117.616C40.7143 116.084 28.4228 110.016 19.1672 100.449C9.91161 90.8808 4.26458 78.4043 3.1883 65.1449C2.11203 51.8855 5.6731 38.6637 13.2648 27.7322C20.8564 16.8008 32.0089 8.83606 44.8221 5.19519" stroke="#FF84A0" stroke-width="4.45565" stroke-linecap="round"/>
</svg>
