<svg width="118" height="121" viewBox="0 0 118 121" fill="none" xmlns="http://www.w3.org/2000/svg">
<path d="M2.61365 42.8598C6.70067 30.1984 15.0576 19.3438 26.2607 12.1456C37.4637 4.9473 50.8196 1.85069 64.0526 3.38337C77.2857 4.91605 89.5772 10.9832 98.8328 20.551C108.088 30.1189 113.735 42.5954 114.812 55.8548C115.888 69.1142 112.327 82.336 104.735 93.2675C97.1436 104.199 85.9911 112.164 73.1779 115.804C60.3648 119.445 46.6838 118.537 34.4661 113.235C22.2484 107.932 12.2499 98.5631 6.17417 86.7243" stroke="#F2F6FB" stroke-width="4.45565" stroke-linecap="round"/>
<path d="M41.8213 5.1955C54.6344 1.55462 68.3154 2.46286 80.5331 7.76545" stroke="#FF84A0" stroke-width="4.45565" stroke-linecap="round"/>
</svg>
