<svg width="121" height="121" viewBox="0 0 121 121" fill="none" xmlns="http://www.w3.org/2000/svg">
<path d="M5.61365 42.8598C9.70067 30.1984 18.0576 19.3438 29.2607 12.1456C40.4637 4.9473 53.8196 1.85069 67.0526 3.38337C80.2857 4.91605 92.5772 10.9832 101.833 20.551C111.088 30.1189 116.735 42.5954 117.812 55.8548C118.888 69.1142 115.327 82.336 107.735 93.2675C100.144 104.199 88.9911 112.164 76.1779 115.804C63.3648 119.445 49.6838 118.537 37.4661 113.235C25.2484 107.932 15.2499 98.5631 9.17417 86.7243" stroke="#F2F6FB" stroke-width="4.45565" stroke-linecap="round"/>
<path d="M115.386 78.1402C111.299 90.8016 102.942 101.656 91.7394 108.854C80.5363 116.053 67.1805 119.149 53.9474 117.617C40.7143 116.084 28.4228 110.017 19.1672 100.449C9.91161 90.8811 4.26458 78.4046 3.1883 65.1452C2.11203 51.8858 5.6731 38.664 13.2648 27.7325C20.8564 16.8011 32.0089 8.83637 44.8221 5.1955C57.6352 1.55462 71.3162 2.46286 83.5339 7.76545C95.7516 13.068 105.75 22.4369 111.826 34.2757" stroke="#FF84A0" stroke-width="4.45565" stroke-linecap="round"/>
</svg>
