<svg width="33" height="33" viewBox="0 0 33 33" fill="none" xmlns="http://www.w3.org/2000/svg">
<path d="M16.5 23.375V28.875M11 28.875H22M13.75 13.75H19.25M16.5 11V16.5M10.725 23.375H22.275C24.5852 23.375 25.7403 23.375 26.6227 22.9254C27.3989 22.5299 28.0299 21.8989 28.4254 21.1227C28.875 20.2403 28.875 19.0852 28.875 16.775V10.725C28.875 8.41478 28.875 7.25968 28.4254 6.37729C28.0299 5.60112 27.3989 4.97008 26.6227 4.5746C25.7403 4.125 24.5852 4.125 22.275 4.125H10.725C8.41478 4.125 7.25968 4.125 6.37729 4.5746C5.60112 4.97008 4.97008 5.60112 4.5746 6.37729C4.125 7.25968 4.125 8.41478 4.125 10.725V16.775C4.125 19.0852 4.125 20.2403 4.5746 21.1227C4.97008 21.8989 5.60112 22.5299 6.37729 22.9254C7.25968 23.375 8.41478 23.375 10.725 23.375Z" stroke="#269BC7" stroke-width="2" stroke-linecap="round" stroke-linejoin="round"/>
</svg>
