<?xml version="1.0" encoding="UTF-8"?>
<!DOCTYPE svg PUBLIC "-//W3C//DTD SVG 1.1//EN" "http://www.w3.org/Graphics/SVG/1.1/DTD/svg11.dtd">
<svg xmlns="http://www.w3.org/2000/svg" version="1.1" width="37px" height="30px" style="shape-rendering:geometricPrecision; text-rendering:geometricPrecision; image-rendering:optimizeQuality; fill-rule:evenodd; clip-rule:evenodd" xmlns:xlink="http://www.w3.org/1999/xlink">
<g><path style="opacity:0.533" fill="#000000" d="M 1.5,-0.5 C 2.16667,-0.5 2.83333,-0.5 3.5,-0.5C 3.83333,0.833333 4.16667,0.833333 4.5,-0.5C 5.16667,-0.5 5.83333,-0.5 6.5,-0.5C 6.04291,4.42059 8.04291,7.92059 12.5,10C 15.8333,12 19.1667,12 22.5,10C 26.9571,7.92059 28.9571,4.42059 28.5,-0.5C 29.1667,-0.5 29.8333,-0.5 30.5,-0.5C 30.8333,0.833333 31.1667,0.833333 31.5,-0.5C 32.1667,-0.5 32.8333,-0.5 33.5,-0.5C 31.2227,3.88106 28.556,8.04772 25.5,12C 26.2549,17.6829 28.9216,22.1829 33.5,25.5C 34.4287,26.6888 34.762,28.0222 34.5,29.5C 33.8333,29.5 33.1667,29.5 32.5,29.5C 29.8257,25.9852 27.3257,22.3185 25,18.5C 24.9803,23.5624 22.4803,26.2291 17.5,26.5C 12.7501,25.9174 10.2501,23.2507 10,18.5C 7.96145,22.6086 5.46145,26.2752 2.5,29.5C 1.83333,29.5 1.16667,29.5 0.5,29.5C 1.56421,25.901 3.73088,22.901 7,20.5C 8.21973,17.7892 9.05306,14.9559 9.5,12C 6.45693,8.08208 3.79026,3.91541 1.5,-0.5 Z M 11.5,11.5 C 14.912,13.7159 18.5787,14.0492 22.5,12.5C 23.7362,14.0335 24.2362,15.7002 24,17.5C 19.6667,13.5 15.3333,13.5 11,17.5C 11.1349,15.5753 11.3016,13.5753 11.5,11.5 Z M 14.5,18.5 C 16.3566,21.0176 18.1899,21.0176 20,18.5C 20.5378,20.4731 19.7044,21.4731 17.5,21.5C 15.484,21.4841 14.484,20.4841 14.5,18.5 Z"/></g>
<g><path style="opacity:0.396" fill="#000000" d="M 15.5,3.5 C 22.0748,3.66712 22.7414,5.33379 17.5,8.5C 13.8712,7.3645 13.2045,5.69784 15.5,3.5 Z"/></g>
</svg>
