<svg width="33" height="33" viewBox="0 0 33 33" fill="none" xmlns="http://www.w3.org/2000/svg">
<path d="M12.375 16.5L15.125 19.25L20.625 13.75M27.5 16.5C27.5 22.634 19.9926 27.0789 17.382 28.4391C17.0996 28.5862 16.9584 28.6598 16.7626 28.6979C16.61 28.7276 16.39 28.7276 16.2374 28.6979C16.0416 28.6598 15.9004 28.5862 15.618 28.4391C13.0074 27.0789 5.5 22.634 5.5 16.5V11.2992C5.5 10.1999 5.5 9.65021 5.6798 9.17772C5.83863 8.76032 6.09673 8.38789 6.43178 8.09261C6.81106 7.75836 7.32572 7.56536 8.35506 7.17936L15.7275 4.41468C16.0134 4.30749 16.1563 4.25389 16.3034 4.23264C16.4338 4.21379 16.5662 4.21379 16.6966 4.23264C16.8437 4.25389 16.9866 4.30749 17.2725 4.41468L24.6449 7.17936C25.6743 7.56536 26.1889 7.75836 26.5682 8.09261C26.9033 8.38789 27.1614 8.76032 27.3202 9.17772C27.5 9.65021 27.5 10.1999 27.5 11.2992V16.5Z" stroke="#269BC7" stroke-width="2" stroke-linecap="round" stroke-linejoin="round"/>
</svg>
