<svg width="187" height="11" viewBox="0 0 187 11" fill="none" xmlns="http://www.w3.org/2000/svg">
<path d="M10.6253 2.60557V10.8585H0V2.60557H1.7027V9.21971H4.45577V2.60557H6.15849V9.21971H8.92263V2.60557H10.6253ZM12.4818 10.8585V2.60557H14.1845V6.21329L17.3245 2.60557H19.3811L16.23 6.10717L19.5248 10.8585H17.4794L15.0801 7.34512L14.1845 8.33549V10.8585H12.4818ZM27.2585 9.76205C26.4772 10.5873 25.4968 11 24.3175 11C23.1381 11 22.1577 10.5873 21.3764 9.76205C20.6025 8.93676 20.2155 7.92675 20.2155 6.73204C20.2155 5.54518 20.6062 4.53912 21.3875 3.71383C22.1762 2.88067 23.1602 2.46409 24.3396 2.46409C25.5189 2.46409 26.4956 2.87674 27.2696 3.70203C28.0509 4.52732 28.4415 5.53734 28.4415 6.73204C28.4415 7.91891 28.0472 8.92889 27.2585 9.76205ZM22.659 8.57127C23.1012 9.0743 23.6614 9.32583 24.3396 9.32583C25.0177 9.32583 25.5742 9.07825 26.0091 8.58307C26.444 8.08004 26.6615 7.46301 26.6615 6.73204C26.6615 6.00892 26.4403 5.39585 25.9981 4.89282C25.5558 4.38979 24.9956 4.13826 24.3175 4.13826C23.6393 4.13826 23.0828 4.38979 22.6479 4.89282C22.213 5.388 21.9956 6.00108 21.9956 6.73204C21.9956 7.45516 22.2167 8.06824 22.659 8.57127ZM30.9801 2.60557H36.5085V10.8585H34.8057V4.24438H32.5723V4.86922C32.5723 6.48051 32.4801 7.73026 32.2959 8.61843C32.119 9.5066 31.8574 10.1197 31.5109 10.4577C31.1646 10.7956 30.6818 10.9646 30.0626 10.9646C29.7161 10.9646 29.4177 10.9293 29.1669 10.8585L29.2776 9.36119C29.3806 9.37691 29.4691 9.38479 29.5429 9.38479C29.7934 9.38479 29.9963 9.32975 30.151 9.21971C30.3131 9.10182 30.4605 8.86996 30.5933 8.52411C30.7334 8.17828 30.8327 7.66345 30.8917 6.97962C30.9506 6.28797 30.9801 5.39977 30.9801 4.31511V2.60557ZM37.6996 10.8585L41.0166 2.54662H42.5866L45.9036 10.8585H44.1237L43.416 9.00749H40.1431L39.4358 10.8585H37.6996ZM40.7512 7.40408H42.8079L41.7797 4.72777L40.7512 7.40408ZM63.1459 10.8585H61.4541V8.66559L60.4259 7.4866L58.2478 10.8585H56.2133L59.276 6.17793L56.324 2.60557H58.3474L61.4541 6.46087V2.60557H63.1459V6.46087L66.2527 2.60557H68.2761L65.3241 6.17793L68.3868 10.8585H66.3522L64.163 7.4866L63.1459 8.66559V10.8585ZM69.4164 10.8585V2.60557H75.2543V4.22078H71.1082V5.89496H74.7568V7.51017H71.1082V9.2433H75.3097V10.8585H69.4164ZM76.8234 10.8585V2.60557H78.5263V5.87139H81.6663V2.60557H83.3689V10.8585H81.6663V7.54556H78.5263V10.8585H76.8234ZM88.8503 11C87.7152 11 86.7682 10.5913 86.0089 9.77385C85.2571 8.94856 84.8811 7.93463 84.8811 6.73204C84.8811 5.53734 85.2607 4.52732 86.02 3.70203C86.7793 2.87674 87.7447 2.46409 88.9169 2.46409C89.5874 2.46409 90.1515 2.58199 90.6083 2.81779C91.0655 3.04572 91.5002 3.37585 91.913 3.80816L90.8959 5.05787C90.5642 4.73561 90.251 4.50376 89.9561 4.36227C89.6686 4.21294 89.3186 4.13826 88.9058 4.13826C88.2571 4.13826 87.719 4.38979 87.2914 4.89282C86.8713 5.388 86.6614 6.00108 86.6614 6.73204C86.6614 7.45516 86.8713 8.06824 87.2914 8.57127C87.719 9.0743 88.2571 9.32583 88.9058 9.32583C89.3186 9.32583 89.6759 9.24722 89.978 9.09002C90.2805 8.93284 90.601 8.68919 90.94 8.35905L92.0236 9.597C91.6035 10.0765 91.1464 10.4302 90.6527 10.6581C90.166 10.886 89.5655 11 88.8503 11ZM93.3867 10.8585V2.60557H95.0895V6.21329L98.2293 2.60557H100.286L97.1348 6.10717L100.43 10.8585H98.3843L95.9849 7.34512L95.0895 8.33549V10.8585H93.3867ZM108.163 9.76205C107.382 10.5873 106.402 11 105.222 11C104.043 11 103.063 10.5873 102.281 9.76205C101.507 8.93676 101.12 7.92675 101.12 6.73204C101.12 5.54518 101.511 4.53912 102.292 3.71383C103.081 2.88067 104.065 2.46409 105.245 2.46409C106.424 2.46409 107.4 2.87674 108.174 3.70203C108.956 4.52732 109.347 5.53734 109.347 6.73204C109.347 7.91891 108.952 8.92889 108.163 9.76205ZM103.564 8.57127C104.006 9.0743 104.566 9.32583 105.245 9.32583C105.923 9.32583 106.479 9.07825 106.914 8.58307C107.349 8.08004 107.566 7.46301 107.566 6.73204C107.566 6.00892 107.345 5.39585 106.903 4.89282C106.461 4.38979 105.901 4.13826 105.222 4.13826C104.544 4.13826 103.988 4.38979 103.553 4.89282C103.118 5.388 102.901 6.00108 102.901 6.73204C102.901 7.45516 103.122 8.06824 103.564 8.57127ZM117.524 2.60557V10.8585H115.843V5.44693L112.46 10.8585H110.857V2.60557H112.537V8.01715L115.943 2.60557H117.524ZM115.468 1.50911C115.143 1.82351 114.727 1.98071 114.218 1.98071C113.71 1.98071 113.289 1.82351 112.958 1.50911C112.633 1.19471 112.434 0.754554 112.36 0.188639L113.345 0C113.499 0.526617 113.791 0.789924 114.218 0.789924C114.645 0.789924 114.937 0.526617 115.092 0L116.076 0.188639C116.002 0.754554 115.799 1.19471 115.468 1.50911ZM129.331 10.8585V2.60557H131.034V6.21329L134.174 2.60557H136.231L133.079 6.10717L136.374 10.8585H134.329L131.93 7.34512L131.034 8.33549V10.8585H129.331ZM137.408 10.8585V2.60557H140.57C141.484 2.60557 142.206 2.86888 142.737 3.3955C143.268 3.92212 143.533 4.61772 143.533 5.48233C143.533 6.40194 143.238 7.11718 142.649 7.62809C142.059 8.13112 141.311 8.38265 140.404 8.38265H139.11V10.8585H137.408ZM139.11 6.76741H140.459C140.879 6.76741 141.208 6.64952 141.443 6.41371C141.687 6.17793 141.808 5.87139 141.808 5.4941C141.808 5.09324 141.687 4.7867 141.443 4.57448C141.2 4.35443 140.861 4.24438 140.426 4.24438H139.11V6.76741ZM144.13 10.8585L147.447 2.54662H149.017L152.334 10.8585H150.554L149.846 9.00749H146.573L145.866 10.8585H144.13ZM147.181 7.40408H149.238L148.21 4.72777L147.181 7.40408ZM157.155 11C156.019 11 155.072 10.5913 154.313 9.77385C153.561 8.94856 153.185 7.93463 153.185 6.73204C153.185 5.53734 153.565 4.52732 154.324 3.70203C155.084 2.87674 156.049 2.46409 157.221 2.46409C157.892 2.46409 158.456 2.58199 158.913 2.81779C159.37 3.04572 159.805 3.37585 160.218 3.80816L159.2 5.05787C158.868 4.73561 158.555 4.50376 158.26 4.36227C157.973 4.21294 157.623 4.13826 157.21 4.13826C156.561 4.13826 156.023 4.38979 155.596 4.89282C155.175 5.388 154.966 6.00108 154.966 6.73204C154.966 7.45516 155.175 8.06824 155.596 8.57127C156.023 9.0743 156.561 9.32583 157.21 9.32583C157.623 9.32583 157.98 9.24722 158.283 9.09002C158.585 8.93284 158.905 8.68919 159.244 8.35905L160.328 9.597C159.908 10.0765 159.451 10.4302 158.957 10.6581C158.471 10.886 157.87 11 157.155 11ZM168.391 9.76205C167.61 10.5873 166.63 11 165.45 11C164.271 11 163.29 10.5873 162.509 9.76205C161.735 8.93676 161.348 7.92675 161.348 6.73204C161.348 5.54518 161.739 4.53912 162.52 3.71383C163.309 2.88067 164.293 2.46409 165.472 2.46409C166.652 2.46409 167.628 2.87674 168.402 3.70203C169.184 4.52732 169.574 5.53734 169.574 6.73204C169.574 7.91891 169.18 8.92889 168.391 9.76205ZM163.792 8.57127C164.234 9.0743 164.794 9.32583 165.472 9.32583C166.151 9.32583 166.707 9.07825 167.142 8.58307C167.577 8.08004 167.794 7.46301 167.794 6.73204C167.794 6.00892 167.573 5.39585 167.131 4.89282C166.689 4.38979 166.128 4.13826 165.45 4.13826C164.772 4.13826 164.216 4.38979 163.781 4.89282C163.346 5.388 163.128 6.00108 163.128 6.73204C163.128 7.45516 163.349 8.06824 163.792 8.57127ZM172.887 10.8585V4.27975H170.532V2.60557H176.945V4.27975H174.59V10.8585H172.887ZM178.254 10.8585V2.60557H179.957V5.41157H181.604C182.489 5.41157 183.182 5.65522 183.683 6.14257C184.184 6.622 184.435 7.27047 184.435 8.08788C184.435 8.93676 184.169 9.61272 183.639 10.1158C183.116 10.6109 182.401 10.8585 181.494 10.8585H178.254ZM181.461 6.96785H179.957V9.21971H181.472C182.319 9.21971 182.743 8.8346 182.743 8.06431C182.743 7.33332 182.316 6.96785 181.461 6.96785ZM185.297 10.8585V2.60557H187V10.8585H185.297Z" fill="white"/>
</svg>
