<svg width="33" height="33" viewBox="0 0 33 33" fill="none" xmlns="http://www.w3.org/2000/svg">
<path d="M28.875 11V22C28.875 25.7969 25.7969 28.875 22 28.875H11C7.20305 28.875 4.125 25.7969 4.125 22V11C4.125 7.20305 7.20305 4.125 11 4.125H22C25.7969 4.125 28.875 7.20305 28.875 11Z" stroke="#269BC7" stroke-width="1.5" stroke-linecap="round" stroke-linejoin="round"/>
<path d="M19.1125 24.75H13.8875C13.4319 24.75 13.0625 24.3807 13.0625 23.925V20.7625C13.0625 20.3068 12.6931 19.9375 12.2375 19.9375H9.075C8.61937 19.9375 8.25 19.5682 8.25 19.1125V13.8875C8.25 13.4319 8.61937 13.0625 9.075 13.0625H12.2375C12.6931 13.0625 13.0625 12.6931 13.0625 12.2375V9.075C13.0625 8.61937 13.4319 8.25 13.8875 8.25H19.1125C19.5682 8.25 19.9375 8.61937 19.9375 9.075V12.2375C19.9375 12.6931 20.3068 13.0625 20.7625 13.0625H23.925C24.3807 13.0625 24.75 13.4319 24.75 13.8875V19.1125C24.75 19.5682 24.3807 19.9375 23.925 19.9375H20.7625C20.3068 19.9375 19.9375 20.3068 19.9375 20.7625V23.925C19.9375 24.3807 19.5682 24.75 19.1125 24.75Z" stroke="#269BC7" stroke-width="1.5"/>
</svg>
