<svg width="46" height="45" viewBox="0 0 46 45" fill="none" xmlns="http://www.w3.org/2000/svg">
<rect width="45" height="45" rx="7" fill="#269BC7"/>
<path d="M23.72 30.256L23.336 29.552C23.72 28.016 24.2107 26.3947 24.808 24.688C25.4053 22.9813 26.0453 21.2533 26.728 19.504C27.4533 17.7547 28.1573 16.112 28.84 14.576H33.064C32.68 16.2827 32.2747 18.0747 31.848 19.952C31.464 21.7867 31.1013 23.6 30.76 25.392C30.4613 27.1413 30.2053 28.7627 29.992 30.256H23.72ZM11.688 30.256L11.304 29.552C11.688 28.016 12.1787 26.3947 12.776 24.688C13.3733 22.9813 14.0133 21.2533 14.696 19.504C15.4213 17.7547 16.1253 16.112 16.808 14.576H21.032C20.648 16.2827 20.2427 18.0747 19.816 19.952C19.432 21.7867 19.0693 23.6 18.728 25.392C18.4293 27.1413 18.1733 28.7627 17.96 30.256H11.688Z" fill="white"/>
</svg>
