<svg width="33" height="33" viewBox="0 0 33 33" fill="none" xmlns="http://www.w3.org/2000/svg">
<path d="M9.94965 9.625L27.5 24.75M9.94965 9.625C10.6028 8.89521 11 7.93148 11 6.875C11 4.59683 9.15317 2.75 6.875 2.75C4.59683 2.75 2.75 4.59683 2.75 6.875C2.75 9.15317 4.59683 11 6.875 11C8.09669 11 9.19434 10.4689 9.94965 9.625Z" stroke="#269BC7" stroke-width="1.5" stroke-linecap="round" stroke-linejoin="round"/>
<path d="M9.94965 23.375L27.5 8.25M9.94965 23.375C10.6028 24.1048 11 25.0684 11 26.125C11 28.4032 9.15317 30.25 6.875 30.25C4.59683 30.25 2.75 28.4032 2.75 26.125C2.75 23.8468 4.59683 22 6.875 22C8.09669 22 9.19434 22.5312 9.94965 23.375Z" stroke="#269BC7" stroke-width="1.5" stroke-linecap="round" stroke-linejoin="round"/>
</svg>
