<svg width="33" height="33" viewBox="0 0 33 33" fill="none" xmlns="http://www.w3.org/2000/svg">
<path d="M16.5 30.25C8.90608 30.25 2.75 24.0938 2.75 16.5C2.75 8.90608 8.90608 2.75 16.5 2.75C24.0938 2.75 30.25 8.90608 30.25 16.5C30.25 24.0938 24.0938 30.25 16.5 30.25Z" stroke="#269BC7" stroke-width="1.5" stroke-linecap="round" stroke-linejoin="round"/>
<path d="M22.6875 19.9375C22.6875 19.9375 20.625 22.6875 16.5 22.6875C12.375 22.6875 10.3125 19.9375 10.3125 19.9375" stroke="#269BC7" stroke-width="1.5" stroke-linecap="round" stroke-linejoin="round"/>
<path d="M21.3125 12.375C20.9329 12.375 20.625 12.0672 20.625 11.6875C20.625 11.3078 20.9329 11 21.3125 11C21.6921 11 22 11.3078 22 11.6875C22 12.0672 21.6921 12.375 21.3125 12.375Z" fill="#269BC7" stroke="#269BC7" stroke-width="1.5" stroke-linecap="round" stroke-linejoin="round"/>
<path d="M11.6875 12.375C11.3078 12.375 11 12.0672 11 11.6875C11 11.3078 11.3078 11 11.6875 11C12.0672 11 12.375 11.3078 12.375 11.6875C12.375 12.0672 12.0672 12.375 11.6875 12.375Z" fill="#269BC7" stroke="#269BC7" stroke-width="1.5" stroke-linecap="round" stroke-linejoin="round"/>
</svg>
