<svg width="33" height="33" viewBox="0 0 33 33" fill="none" xmlns="http://www.w3.org/2000/svg">
<path d="M22.0844 14.3052L19.25 23.3751H13.75L10.9157 14.3052C10.1074 11.7188 10.6208 8.90055 12.2889 6.76528L15.8499 2.20723C16.1802 1.78444 16.8198 1.78444 17.1501 2.20723L20.7111 6.76528C22.3792 8.90055 22.8925 11.7188 22.0844 14.3052Z" stroke="#269BC7" stroke-width="1.5" stroke-linecap="round" stroke-linejoin="round"/>
<path d="M13.75 27.5C13.75 30.25 16.5 31.625 16.5 31.625C16.5 31.625 19.25 30.25 19.25 27.5" stroke="#269BC7" stroke-width="1.5" stroke-linecap="round" stroke-linejoin="round"/>
<path d="M11.6875 17.1875C6.875 20.625 9.625 26.125 9.625 26.125L13.75 23.375" stroke="#269BC7" stroke-width="1.5" stroke-linecap="round" stroke-linejoin="round"/>
<path d="M21.9053 17.1875C26.7178 20.625 23.9678 26.125 23.9678 26.125L19.8428 23.375" stroke="#269BC7" stroke-width="1.5" stroke-linecap="round" stroke-linejoin="round"/>
<path d="M16.5 15.125C14.9812 15.125 13.75 13.8938 13.75 12.375C13.75 10.8562 14.9812 9.625 16.5 9.625C18.0188 9.625 19.25 10.8562 19.25 12.375C19.25 13.8938 18.0188 15.125 16.5 15.125Z" stroke="#269BC7" stroke-width="1.5" stroke-linecap="round" stroke-linejoin="round"/>
</svg>
